<?xml version="1.0" encoding="iso-8859-1"?>
<!-- Generator: Adobe Illustrator 19.0.0, SVG Export Plug-In . SVG Version: 6.00 Build 0)  -->
<svg version="1.1" id="Capa_1" xmlns="http://www.w3.org/2000/svg" xmlns:xlink="http://www.w3.org/1999/xlink" x="0px" y="0px"
	 viewBox="0 0 512.001 512.001" style="enable-background:new 0 0 512.001 512.001;" xml:space="preserve">
<g>
	<g>
		<path d="M483.03,229.915c-0.002-0.205-0.016-0.408-0.031-0.612c-0.009-0.133-0.013-0.268-0.028-0.4
			c-0.018-0.159-0.047-0.315-0.072-0.473c-0.027-0.172-0.05-0.345-0.086-0.514c-0.02-0.098-0.051-0.193-0.074-0.29
			c-0.054-0.221-0.106-0.442-0.175-0.657c-0.015-0.047-0.035-0.092-0.051-0.14c-0.086-0.257-0.176-0.513-0.283-0.761
			c-0.036-0.084-0.081-0.164-0.119-0.248c-0.095-0.205-0.188-0.411-0.295-0.607c-0.119-0.218-0.252-0.428-0.388-0.638
			c-0.037-0.057-0.068-0.118-0.106-0.174c-0.159-0.236-0.332-0.463-0.513-0.686c-0.021-0.027-0.04-0.056-0.063-0.084
			c-0.148-0.18-0.311-0.35-0.473-0.52c-0.063-0.067-0.122-0.138-0.188-0.203c-0.126-0.125-0.263-0.241-0.397-0.36
			c-0.115-0.103-0.227-0.209-0.346-0.307c-0.106-0.086-0.22-0.164-0.33-0.246c-0.161-0.121-0.321-0.242-0.49-0.353
			c-0.024-0.016-0.045-0.034-0.069-0.05L266,84.55v-7.62l73.511-27.567C343.416,47.899,346,44.168,346,40
			c0-4.168-2.586-7.9-6.489-9.363l-80-30c-0.053-0.02-0.109-0.031-0.162-0.05c-0.268-0.095-0.54-0.179-0.818-0.251
			c-0.102-0.026-0.202-0.055-0.304-0.078c-0.283-0.065-0.572-0.114-0.864-0.154c-0.087-0.012-0.173-0.03-0.261-0.04
			C256.74,0.024,256.373,0,256,0c-0.007,0-0.013,0.001-0.02,0.001c-0.063,0-0.125,0.008-0.188,0.009
			c-0.316,0.007-0.629,0.025-0.938,0.06c-0.109,0.013-0.216,0.034-0.325,0.049c-0.268,0.04-0.534,0.087-0.794,0.147
			c-0.11,0.026-0.219,0.055-0.328,0.084c-0.265,0.071-0.524,0.152-0.779,0.244c-0.098,0.035-0.196,0.069-0.293,0.108
			c-0.293,0.115-0.578,0.244-0.856,0.386c-0.054,0.028-0.11,0.051-0.164,0.079c-0.336,0.179-0.661,0.375-0.974,0.59
			c-0.012,0.008-0.025,0.014-0.038,0.023c-0.047,0.033-0.088,0.073-0.135,0.106c-0.242,0.174-0.477,0.358-0.703,0.553
			c-0.093,0.08-0.182,0.164-0.272,0.247c-0.187,0.174-0.367,0.355-0.54,0.543c-0.082,0.089-0.165,0.176-0.243,0.267
			c-0.2,0.233-0.389,0.477-0.567,0.728c-0.033,0.046-0.07,0.089-0.102,0.136c-0.211,0.309-0.404,0.631-0.581,0.964
			c-0.029,0.055-0.053,0.112-0.081,0.168c-0.14,0.275-0.267,0.558-0.381,0.848c-0.037,0.093-0.069,0.187-0.103,0.281
			c-0.093,0.26-0.176,0.523-0.248,0.793c-0.028,0.105-0.057,0.21-0.081,0.316c-0.063,0.272-0.112,0.548-0.152,0.827
			c-0.015,0.101-0.035,0.199-0.046,0.3c-0.043,0.375-0.07,0.754-0.07,1.141v74.55L33.547,221.596
			c-0.024,0.016-0.045,0.034-0.069,0.05c-0.169,0.111-0.329,0.232-0.49,0.353c-0.11,0.082-0.224,0.16-0.33,0.246
			c-0.12,0.098-0.231,0.204-0.346,0.307c-0.134,0.119-0.271,0.235-0.397,0.36c-0.066,0.065-0.124,0.136-0.188,0.203
			c-0.162,0.17-0.324,0.34-0.473,0.52c-0.022,0.027-0.041,0.057-0.063,0.084c-0.18,0.223-0.354,0.45-0.513,0.686
			c-0.038,0.056-0.07,0.117-0.106,0.174c-0.135,0.21-0.269,0.42-0.388,0.638c-0.108,0.197-0.2,0.403-0.295,0.607
			c-0.038,0.084-0.083,0.164-0.119,0.248c-0.106,0.248-0.197,0.504-0.283,0.761c-0.016,0.047-0.036,0.092-0.051,0.14
			c-0.068,0.215-0.121,0.436-0.175,0.657c-0.023,0.097-0.054,0.192-0.074,0.29c-0.036,0.169-0.059,0.342-0.086,0.514
			c-0.025,0.157-0.054,0.314-0.072,0.473c-0.015,0.132-0.019,0.267-0.028,0.4c-0.015,0.204-0.029,0.407-0.031,0.612
			c0,0.028-0.004,0.056-0.004,0.084v39.796c0,0.017,0,0.034,0,0.051V270c0,0.085,0.011,0.167,0.013,0.25
			c0.006,0.226,0.013,0.452,0.034,0.679c0.015,0.158,0.04,0.313,0.062,0.468c0.023,0.165,0.043,0.33,0.076,0.495
			c0.041,0.215,0.095,0.425,0.15,0.634c0.023,0.088,0.037,0.177,0.063,0.266c0.009,0.031,0.02,0.062,0.029,0.093
			c0.019,0.063,0.04,0.127,0.06,0.19c4.785,16.15,16.267,29.334,31.169,37.232L46.737,492.001h-7.769c-5.523,0-10,4.477-10,10
			s4.477,10,10,10h434.067c5.523,0,10-4.477,10-10s-4.477-10-10-10h-7.769l-13.887-181.694
			c14.902-7.898,26.384-21.082,31.169-37.232c0.021-0.063,0.041-0.126,0.06-0.19c0.009-0.031,0.02-0.062,0.029-0.093
			c0.026-0.088,0.04-0.177,0.063-0.266c0.055-0.21,0.109-0.419,0.15-0.634c0.032-0.165,0.052-0.33,0.076-0.495
			c0.022-0.156,0.047-0.31,0.062-0.468c0.021-0.227,0.028-0.453,0.034-0.679c0.002-0.084,0.013-0.166,0.013-0.25v-0.154
			c0-0.017,0-0.034,0-0.051v-39.796C483.034,229.971,483.03,229.943,483.03,229.915z M266,24.43L307.521,40L266,55.57V24.43z
			 M439.084,219.999h-69.665l-69.665-89.876L439.084,219.999z M266,119.224l78.114,100.775H266V119.224z M266,239.999h88.518v28.464
			c-5.792,17.67-23.784,29.903-44.26,29.903c-17.872,0-33.849-9.321-41.477-23.44c-0.693-2.079-1.387-4.189-2.082-6.314L266,260.897
			V239.999z M246.002,119.224v100.775h-78.113L246.002,119.224z M246.001,240.001v19.924l-0.426,8.82
			c-0.476,1.459-0.951,2.907-1.425,4.345c-7.197,15.142-23.772,25.277-42.407,25.277c-20.475,0-38.466-12.231-44.259-29.899v-28.467
			H246.001z M212.248,130.122l-69.665,89.877H72.919L212.248,130.122z M48.967,268.467V240h88.517v28.467
			c-5.793,17.669-23.784,29.899-44.259,29.899C72.751,298.366,54.76,286.135,48.967,268.467z M110.159,492H66.794l10.296-134.707
			h31.771c5.523,0,10-4.477,10-10s-4.477-10-10-10H78.62l1.54-20.155c4.244,0.801,8.614,1.228,13.065,1.228
			c22.035,0,42.126-10.255,54.259-26.445c12.133,16.19,32.224,26.445,54.259,26.445c10.144,0,19.876-2.176,28.611-6.1
			c-11.665,31.097-22.402,54.95-30.336,71.216C169.419,446.213,138.378,483.675,110.159,492z M149.076,492.002
			c23.145-19.853,46.213-53.2,68.918-99.751c9.73-19.948,23.561-50.995,38.18-92.467c14.491,40.982,28.182,71.703,37.834,91.493
			c23.081,47.321,46.538,80.998,70.068,100.725H149.076z M404.68,492.001c-0.539-0.255-1.103-0.473-1.699-0.632
			c-28.522-7.643-59.988-45.286-90.996-108.86c-7.835-16.063-18.402-39.528-29.898-70.053c8.623,3.801,18.197,5.911,28.173,5.911
			c22.035,0,42.126-10.255,54.259-26.445c12.133,16.19,32.224,26.445,54.259,26.445c4.452,0,8.821-0.427,13.065-1.228l5.159,67.506
			H406.76c-5.523,0-10,4.477-10,10s4.477,10,10,10h31.77l6.677,87.356H404.68z M463.034,268.467
			c-5.793,17.668-23.784,29.899-44.258,29.899c-20.473,0-38.463-12.23-44.258-29.896V240h88.516V268.467z"/>
	</g>
</g>
<g>
	<g>
		<path d="M10.237,492.001H10c-5.523,0-10,4.477-10,10s4.477,10,10,10h0.236c5.523,0,10-4.477,10-10
			C20.237,496.478,15.76,492.001,10.237,492.001z"/>
	</g>
</g>
<g>
	<g>
		<path d="M502,492.001h-0.236c-5.523,0-10,4.477-10,10s4.477,10,10,10H502c5.523,0,10-4.477,10-10S507.523,492.001,502,492.001z"/>
	</g>
</g>
<g>
	<g>
		<path d="M137.828,337.295h-0.236c-5.523,0-10,4.477-10,10s4.477,10,10,10h0.236c5.523,0,10-4.477,10-10
			S143.35,337.295,137.828,337.295z"/>
	</g>
</g>
<g>
	<g>
		<path d="M378.031,384.647h-0.236c-5.523,0-10,4.477-10,10s4.477,10,10,10h0.236c5.523,0,10-4.477,10-10
			C388.031,389.125,383.554,384.647,378.031,384.647z"/>
	</g>
</g>
<g>
</g>
<g>
</g>
<g>
</g>
<g>
</g>
<g>
</g>
<g>
</g>
<g>
</g>
<g>
</g>
<g>
</g>
<g>
</g>
<g>
</g>
<g>
</g>
<g>
</g>
<g>
</g>
<g>
</g>
</svg>
