<?xml version="1.0" encoding="iso-8859-1"?>
<!-- Generator: Adobe Illustrator 19.0.0, SVG Export Plug-In . SVG Version: 6.00 Build 0)  -->
<svg version="1.1" id="Capa_1" xmlns="http://www.w3.org/2000/svg" xmlns:xlink="http://www.w3.org/1999/xlink" x="0px" y="0px"
	 viewBox="0 0 512 512" style="enable-background:new 0 0 512 512;" xml:space="preserve">
<g>
	<g>
		<path d="M502.063,127.68c-6.408-6.408-14.927-9.937-24-9.937c-18.707,0-33.924,15.219-33.924,33.924v122.704
			c-5.316,1.305-10.35,3.828-14.607,7.525l-69.697,60.535c-29.769,25.855-46.842,63.297-46.842,102.725v56.838
			c0,5.522,4.477,10,10,10c5.523,0,10-4.478,10-10v-56.838c0-33.633,14.563-65.571,39.956-87.625l69.696-60.535
			c4.348-3.775,10.573-4.742,15.859-2.459c4.226,1.823,7.348,5.416,8.564,9.854c1.217,4.439,0.364,9.121-2.341,12.845l-58.68,80.789
			c-3.246,4.469-2.254,10.723,2.214,13.968c4.469,3.245,10.723,2.254,13.968-2.214l58.68-80.789
			c6.294-8.665,8.28-19.558,5.448-29.885c-2.832-10.329-10.095-18.687-19.928-22.931c-0.756-0.326-1.521-0.623-2.292-0.892V151.667
			c0-7.678,6.247-13.925,13.937-13.925c3.72,0,7.217,1.449,9.847,4.079s4.079,6.128,4.079,9.848l-0.001,31.331
			c0,5.523,4.477,10,10,10c5.522,0,10-4.477,10-10l0.001-31.331C511.999,142.607,508.471,134.088,502.063,127.68z"/>
	</g>
</g>
<g>
	<g>
		<path d="M501.993,245.999c-5.523,0-10,4.477-10,10l-0.006,105.383c-0.001,21.748-6.011,43.042-17.378,61.581l-45.255,73.805
			c-2.887,4.708-1.411,10.865,3.297,13.753c1.631,1,3.436,1.476,5.218,1.476c3.364,0,6.648-1.696,8.535-4.773l45.255-73.805
			c13.297-21.688,20.327-46.596,20.329-72.034L511.994,256C511.993,250.476,507.516,245.999,501.993,245.999z"/>
	</g>
</g>
<g>
	<g>
		<path d="M509.06,209.748c-1.85-1.87-4.43-2.93-7.06-2.93c-2.64,0-5.22,1.06-7.08,2.93c-1.86,1.86-2.93,4.43-2.93,7.07
			c0,2.63,1.07,5.21,2.93,7.07c1.86,1.86,4.44,2.93,7.08,2.93c2.63,0,5.2-1.07,7.06-2.93c1.87-1.86,2.94-4.44,2.94-7.07
			C512,214.178,510.93,211.608,509.06,209.748z"/>
	</g>
</g>
<g>
	<g>
		<path d="M152.164,342.431l-69.697-60.535c-4.257-3.697-9.291-6.22-14.606-7.526V151.667c0-18.707-15.219-33.924-33.936-33.924
			c-9.062,0-17.582,3.529-23.989,9.937C3.528,134.087,0,142.607,0,151.668l0.011,209.713c0.001,25.438,7.031,50.347,20.329,72.035
			l45.254,73.805c1.887,3.077,5.171,4.774,8.534,4.773c1.782,0,3.587-0.477,5.218-1.476c4.708-2.888,6.185-9.045,3.297-13.753
			l-45.254-73.804c-11.368-18.54-17.377-39.834-17.378-61.581L20,151.667c0-3.72,1.448-7.217,4.079-9.847
			c2.63-2.63,6.127-4.079,9.858-4.079c7.678,0,13.925,6.247,13.925,13.925V275.28c-0.771,0.27-1.536,0.566-2.292,0.892
			c-9.833,4.244-17.096,12.602-19.928,22.93c-2.832,10.328-0.846,21.222,5.448,29.886l58.681,80.789
			c3.246,4.469,9.5,5.46,13.968,2.214c4.468-3.245,5.459-9.499,2.214-13.968l-58.681-80.789c-2.705-3.724-3.558-8.405-2.341-12.845
			c1.217-4.438,4.339-8.031,8.565-9.854c5.286-2.283,11.511-1.317,15.858,2.459l69.697,60.535
			c25.393,22.055,39.956,53.992,39.956,87.625v56.838c0,5.522,4.477,10,10,10s10-4.478,10-10v-56.838
			C199.004,405.728,181.931,368.286,152.164,342.431z"/>
	</g>
</g>
<g>
	<g>
		<path d="M400.539,92.72c-9.642-16.701-25.211-28.646-43.838-33.638c-18.627-4.992-38.082-2.429-54.785,7.212
			c-16.701,9.643-28.646,25.211-33.638,43.838c-3.069,11.452-3.987,23.237-2.728,35.027l1.04,9.734
			c2.272,21.28,0.616,42.551-4.924,63.227l-0.135,0.505c-3.697,13.797-1.8,28.207,5.342,40.577
			c7.142,12.37,18.673,21.219,32.469,24.915c4.666,1.25,9.366,1.854,14.006,1.854c18.08-0.001,35.18-9.185,45.165-25.14
			c21.902-34.999,38.424-72.967,49.111-112.848l0.128-0.478C412.743,128.877,410.182,109.421,400.539,92.72z M388.432,142.33
			l-0.128,0.478c-10.172,37.96-25.9,74.1-46.747,107.415c-7.854,12.549-22.737,18.408-37.04,14.577
			c-8.635-2.316-15.853-7.855-20.324-15.598c-4.471-7.744-5.658-16.765-3.343-25.406l0.135-0.505
			c6.179-23.059,8.026-46.785,5.491-70.523l-1.04-9.734c-0.997-9.333-0.271-18.662,2.159-27.726
			c6.242-23.294,27.384-38.693,50.43-38.693c4.459,0,8.991,0.577,13.498,1.785C379.325,85.849,395.881,114.527,388.432,142.33z"/>
	</g>
</g>
<g>
	<g>
		<path d="M355.293,22.442c-1.86-1.86-4.43-2.92-7.07-2.92c-2.63,0-5.21,1.06-7.07,2.92c-1.86,1.86-2.93,4.44-2.93,7.07
			c0,2.64,1.07,5.21,2.93,7.07c1.86,1.87,4.44,2.93,7.07,2.93c2.64,0,5.21-1.06,7.07-2.93c1.87-1.86,2.93-4.43,2.93-7.07
			C358.223,26.882,357.163,24.302,355.293,22.442z"/>
	</g>
</g>
<g>
	<g>
		<path d="M387.962,33.352c-1.86-1.86-4.44-2.93-7.07-2.93c-2.63,0-5.21,1.07-7.07,2.93c-1.86,1.86-2.93,4.44-2.93,7.07
			c0,2.64,1.07,5.21,2.93,7.07c1.86,1.87,4.44,2.93,7.07,2.93c2.63,0,5.21-1.06,7.07-2.93c1.86-1.86,2.93-4.43,2.93-7.07
			C390.892,37.792,389.822,35.212,387.962,33.352z"/>
	</g>
</g>
<g>
	<g>
		<path d="M410.892,53.432c-1.86-1.87-4.44-2.93-7.07-2.93c-2.64,0-5.21,1.06-7.07,2.93c-1.86,1.86-2.93,4.43-2.93,7.07
			c0,2.63,1.07,5.21,2.93,7.07c1.86,1.86,4.43,2.93,7.07,2.93c2.63,0,5.21-1.07,7.07-2.93c1.86-1.86,2.93-4.44,2.93-7.07
			C413.822,57.862,412.752,55.292,410.892,53.432z"/>
	</g>
</g>
<g>
	<g>
		<path d="M428.302,81.672c-1.85-1.87-4.43-2.93-7.07-2.93c-2.63,0-5.21,1.06-7.07,2.93c-1.86,1.85-2.93,4.43-2.93,7.07
			c0,2.629,1.07,5.209,2.93,7.07c1.86,1.86,4.44,2.93,7.07,2.93c2.64,0,5.21-1.07,7.07-2.93c1.87-1.87,2.93-4.44,2.93-7.07
			C431.232,86.102,430.172,83.532,428.302,81.672z"/>
	</g>
</g>
<g>
	<g>
		<path d="M325.996,18.968c-3.651-13.626-17.707-21.739-31.332-18.09c-6.601,1.769-12.118,6.002-15.534,11.92
			c-3.417,5.918-4.324,12.813-2.556,19.413c1.767,6.601,6.001,12.118,11.919,15.535c3.942,2.276,8.316,3.439,12.75,3.438
			c2.222,0,4.459-0.292,6.664-0.883c6.601-1.769,12.118-6.002,15.534-11.92C326.857,32.463,327.765,25.568,325.996,18.968z
			 M306.119,28.38c-0.746,1.292-1.95,2.215-3.391,2.602c-1.441,0.387-2.946,0.188-4.236-0.558c-1.292-0.746-2.215-1.95-2.602-3.391
			c-0.386-1.439-0.188-2.944,0.558-4.235c0.746-1.292,1.95-2.215,3.391-2.602c0.482-0.129,0.966-0.191,1.443-0.191
			c2.465,0,4.727,1.648,5.395,4.139C307.063,25.584,306.865,27.089,306.119,28.38z"/>
	</g>
</g>
<g>
	<g>
		<path d="M250.46,264.173l-0.138-0.519c-5.539-20.67-7.195-41.941-4.923-63.221l1.04-9.734c1.259-11.791,0.342-23.576-2.728-35.027
			c-10.304-38.452-49.968-61.354-88.422-51.05c-18.627,4.991-34.196,16.938-43.838,33.638c-9.643,16.701-12.204,36.157-7.213,54.783
			l0.129,0.481c10.687,39.881,27.209,77.849,49.111,112.847c9.985,15.956,27.083,25.141,45.163,25.141
			c4.639,0,9.342-0.604,14.006-1.854c13.797-3.696,25.328-12.545,32.469-24.914S254.155,277.964,250.46,264.173z M227.797,294.742
			c-4.471,7.744-11.689,13.282-20.325,15.597c-14.3,3.831-29.186-2.026-37.04-14.577c-20.847-33.313-36.574-69.454-46.746-107.413
			l-0.129-0.481c-7.449-27.8,9.108-56.479,36.909-63.928c4.497-1.205,9.061-1.801,13.595-1.801c9.044,0,17.971,2.372,26.013,7.016
			c12.075,6.971,20.711,18.228,24.32,31.695c2.43,9.064,3.156,18.393,2.159,27.725l-1.04,9.734
			c-2.535,23.738-0.688,47.464,5.489,70.516l0.138,0.516C233.454,277.977,232.266,286.998,227.797,294.742z"/>
	</g>
</g>
<g>
	<g>
		<path d="M170.837,67.992c-1.86-1.87-4.44-2.93-7.07-2.93s-5.21,1.06-7.07,2.93c-1.86,1.86-2.93,4.43-2.93,7.07
			c0,2.63,1.07,5.2,2.93,7.07c1.86,1.859,4.44,2.93,7.07,2.93s5.21-1.07,7.07-2.93c1.86-1.87,2.93-4.44,2.93-7.07
			C173.767,72.422,172.697,69.852,170.837,67.992z"/>
	</g>
</g>
<g>
	<g>
		<path d="M138.167,78.891c-1.86-1.86-4.44-2.93-7.07-2.93c-2.63,0-5.21,1.07-7.07,2.93c-1.86,1.86-2.93,4.44-2.93,7.07
			c0,2.64,1.07,5.21,2.93,7.08c1.86,1.86,4.44,2.93,7.07,2.93c2.63,0,5.21-1.07,7.07-2.93c1.86-1.87,2.93-4.44,2.93-7.08
			C141.097,83.331,140.027,80.761,138.167,78.891z"/>
	</g>
</g>
<g>
	<g>
		<path d="M115.238,98.972c-1.86-1.86-4.44-2.93-7.07-2.93s-5.21,1.07-7.07,2.93c-1.86,1.86-2.93,4.44-2.93,7.07
			s1.07,5.21,2.93,7.07c1.86,1.859,4.44,2.93,7.07,2.93s5.21-1.07,7.07-2.93c1.86-1.86,2.93-4.44,2.93-7.07
			S117.098,100.832,115.238,98.972z"/>
	</g>
</g>
<g>
	<g>
		<path d="M97.828,127.21c-1.86-1.87-4.44-2.93-7.07-2.93s-5.21,1.06-7.07,2.93c-1.87,1.86-2.93,4.44-2.93,7.07s1.06,5.21,2.93,7.07
			c1.86,1.86,4.44,2.93,7.07,2.93s5.21-1.07,7.07-2.93c1.86-1.86,2.93-4.44,2.93-7.07S99.688,129.07,97.828,127.21z"/>
	</g>
</g>
<g>
	<g>
		<path d="M232.861,58.339c-3.417-5.918-8.934-10.152-15.534-11.92c-13.626-3.652-27.681,4.465-31.332,18.09
			c-1.769,6.601-0.861,13.495,2.556,19.414c3.417,5.917,8.934,10.15,15.534,11.919c2.204,0.591,4.441,0.883,6.663,0.883
			c4.433,0,8.808-1.163,12.75-3.439c5.918-3.417,10.151-8.934,11.92-15.534C237.186,71.152,236.278,64.257,232.861,58.339z
			 M216.1,72.575c-0.386,1.441-1.31,2.645-2.602,3.391c-1.292,0.745-2.797,0.943-4.236,0.558c-1.441-0.386-2.645-1.31-3.391-2.602
			s-0.943-2.796-0.558-4.237c0.668-2.492,2.93-4.14,5.395-4.14c0.477,0,0.961,0.062,1.443,0.191c1.441,0.386,2.645,1.31,3.391,2.602
			C216.288,69.63,216.485,71.134,216.1,72.575z"/>
	</g>
</g>
<g>
	<g>
		<path d="M127.068,429.925c-1.86-1.86-4.44-2.93-7.07-2.93s-5.21,1.069-7.07,2.93c-1.86,1.86-2.93,4.44-2.93,7.07
			c0,2.63,1.07,5.21,2.93,7.069c1.86,1.86,4.44,2.931,7.07,2.931s5.21-1.07,7.07-2.931c1.86-1.859,2.93-4.439,2.93-7.069
			C129.997,434.365,128.927,431.785,127.068,429.925z"/>
	</g>
</g>
<g>
</g>
<g>
</g>
<g>
</g>
<g>
</g>
<g>
</g>
<g>
</g>
<g>
</g>
<g>
</g>
<g>
</g>
<g>
</g>
<g>
</g>
<g>
</g>
<g>
</g>
<g>
</g>
<g>
</g>
</svg>
