<svg height="512pt" viewBox="0 0 512 512" width="512pt" xmlns="http://www.w3.org/2000/svg"><g fill-rule="evenodd"><path d="m504.910156 167.375c-4.40625-2.734375-9.917968-3-14.566406-.695312 0 0-86.023438 42.609374-92.34375 45.738281v-2.582031c0-8.285157-6.714844-15-15-15h-45v-30c0-8.285157-6.714844-15-15-15h-2.527344c14.191406-15.917969 22.832032-36.886719 22.832032-59.835938 0-49.625-40.375-90-90-90-44.511719 0-81.574219 32.484375-88.742188 74.988281-11.675781-26.273437-38.003906-44.652343-68.5625-44.652343-41.355469 0-75 33.644531-75 75 0 31.457031 19.476562 58.4375 47 69.554687v34.945313h-53c-8.285156 0-15 6.714843-15 15v60c0 8.28125 6.714844 15 15 15h53v70c0 8.28125 6.714844 15 15 15h60v2c0 13.054687 4.203125 25.140624 11.3125 35h-36.3125c-8.285156 0-15 6.714843-15 15v60.023437c0 8.285156 6.714844 15 15 15s15-6.714844 15-15v-45.023437h140v45c0 8.285156 6.714844 15 15 15s15-6.714844 15-15v-60c0-8.285157-6.714844-15-15-15h-36.3125c7.109375-9.859376 11.3125-21.945313 11.3125-35v-2h60c8.285156 0 15-6.71875 15-15v-55h45c8.285156 0 15-6.71875 15-15v-2.578126c11.777344 5.832032 92.34375 45.734376 92.34375 45.734376 2.101562 1.039062 4.382812 1.558593 6.65625 1.558593 2.75 0 5.496094-.757812 7.910156-2.253906 4.40625-2.738281 7.089844-7.558594 7.089844-12.746094v-149.429687c0-5.191406-2.683594-10.007813-7.089844-12.746094zm-251.605468-137.375c33.085937 0 60 26.914062 60 60 0 31.660156-24.65625 57.65625-55.773438 59.835938h-8.453125c-31.117187-2.179688-55.773437-28.175782-55.773437-59.835938 0-33.085938 26.917968-60 60-60zm-67.167969 119.835938h-29.808594c6.066406-8.207032 10.492187-17.691407 12.8125-27.964844 3.9375 10.371094 9.742187 19.828125 16.996094 27.964844zm-135.136719-44.5c0-24.816407 20.1875-45 45-45s45 20.183593 45 45c0 22.535156-16.65625 41.257812-38.308594 44.5h-13.382812c-21.652344-3.242188-38.308594-21.960938-38.308594-44.5zm-21 164.5v-30h38v30zm203 117c0 16.542968-13.457031 30-30 30s-30-13.460938-30-30v-2h60zm75-32h-210v-174.550782c2.203125-.058594 210-.449218 210-.449218zm60-70h-30v-60h30zm114 20.542968s-67.785156-33.570312-84-41.597656v-17.886719c10.757812-5.328125 84-41.605469 84-41.605469zm0 0"/><path d="m96 120.335938c8.261719 0 15-6.738282 15-15 0-8.265626-6.738281-15-15-15s-15 6.734374-15 15c0 8.261718 6.738281 15 15 15zm0 0"/><path d="m253.304688 105c8.261718 0 15-6.738281 15-15s-6.738282-15-15-15c-8.261719 0-15 6.738281-15 15s6.738281 15 15 15zm0 0"/><path d="m263 294.835938c-8.261719 0-15 6.734374-15 15 0 8.261718 6.738281 15 15 15s15-6.738282 15-15c0-8.261719-6.738281-15-15-15zm0 0"/></g></svg>