<?xml version="1.0" encoding="iso-8859-1"?>
<!-- Generator: Adobe Illustrator 19.0.0, SVG Export Plug-In . SVG Version: 6.00 Build 0)  -->
<svg version="1.1" id="Capa_1" xmlns="http://www.w3.org/2000/svg" xmlns:xlink="http://www.w3.org/1999/xlink" x="0px" y="0px"
	 viewBox="0 0 511.999 511.999" style="enable-background:new 0 0 511.999 511.999;" xml:space="preserve">
<g>
	<g>
		<path d="M74.445,83.709c-2.801-0.27-5.58,0.66-7.66,2.54c-1.851,1.681-3.011,3.971-3.24,6.471c-0.26,2.659,0.54,5.25,2.24,7.31
			c1.71,2.06,4.109,3.34,6.77,3.59c0.311,0.03,0.641,0.04,0.96,0.04c2.471,0,4.851-0.92,6.69-2.58c1.859-1.68,3.01-3.979,3.25-6.47
			C83.973,89.119,79.934,84.229,74.445,83.709z"/>
	</g>
</g>
<g>
	<g>
		<path d="M77.104,127.36c-1.649-2.1-4.019-3.43-6.68-3.741c-0.39-0.05-0.8-0.07-1.189-0.07c-5.061,0-9.32,3.79-9.921,8.811
			c-1.67,14.05-3.46,27.32-5.31,39.42c-0.4,2.64,0.25,5.28,1.83,7.43c1.59,2.16,3.91,3.561,6.55,3.971
			c0.5,0.069,1.01,0.109,1.521,0.109c2.369,0,4.67-0.85,6.479-2.39c1.83-1.561,3.03-3.72,3.4-6.101
			c1.899-12.46,3.71-25.949,5.39-40.069C79.494,132.07,78.754,129.459,77.104,127.36z"/>
	</g>
</g>
<g>
	<g>
		<path d="M65.252,207.291c-1.468-2.232-3.709-3.762-6.329-4.311c-0.67-0.141-1.36-0.21-2.05-0.21c-4.7,0-8.811,3.35-9.771,7.97
			c-0.55,2.61-0.04,5.28,1.42,7.521c1.471,2.229,3.711,3.76,6.33,4.3c0.67,0.14,1.36,0.21,2.04,0.21c4.71,0,8.83-3.351,9.79-7.96
			C67.223,212.191,66.713,209.521,65.252,207.291z"/>
	</g>
</g>
<g>
	<g>
		<path d="M108.513,202.249c-0.779-0.189-1.58-0.29-2.38-0.29c-4.62,0-8.61,3.141-9.7,7.63c-0.64,2.591-0.229,5.28,1.16,7.561
			c1.391,2.28,3.58,3.89,6.17,4.52c0.79,0.2,1.59,0.29,2.391,0.29c4.609,0,8.6-3.13,9.699-7.62
			C117.164,208.98,113.874,203.559,108.513,202.249z"/>
	</g>
</g>
<g>
	<g>
		<path d="M127.223,83.51c-0.39-0.04-0.779-0.07-1.16-0.07c-5.079,0-9.34,3.81-9.93,8.85c-0.63,5.48,3.311,10.45,8.78,11.09
			c0.39,0.04,0.78,0.07,1.17,0.07c5.07,0,9.33-3.81,9.92-8.85C136.643,89.119,132.705,84.149,127.223,83.51z"/>
	</g>
</g>
<g>
	<g>
		<path d="M122.343,123.299c-2.859-0.42-5.77,0.44-7.95,2.311c-1.84,1.57-3.04,3.75-3.38,6.15c-2.01,13.81-4.16,26.989-6.41,39.189
			c-1,5.42,2.601,10.64,8.03,11.64c0.601,0.11,1.21,0.171,1.82,0.171c4.819,0,8.95-3.44,9.819-8.19
			c2.301-12.49,4.5-25.93,6.53-39.94C131.593,129.169,127.794,124.089,122.343,123.299z"/>
	</g>
</g>
<g>
	<g>
		<path d="M501.454,0H321.121c-5.522,0-10,4.477-10,10c0,13.037,0.765,25.809,2.153,38.254c-5.341,2.335-24.58,9.572-57.822,9.572
			c-29.907,0-49.133-4.846-57-7.318c1.553-13.159,2.428-26.68,2.428-40.508c0-5.523-4.477-10-10-10H10.544c-5.522,0-10,4.477-10,10
			l0.003,435.164c0,5.523,4.477,10,10,10h92.033c8.373,0,9.993-10.431,9.98-10.642c-0.053-46.442-5.815-80.147-17.13-100.189
			c-3.944-6.987-8.229-11.71-12.343-14.903c9.256-8.922,16.85-22.846,16.85-43.43c0-2.457-0.889-4.703-2.36-6.441
			c10.98-13.496,28.427-36.779,45.992-67.75c4.432-7.813,9.006-16.4,13.55-25.651c6.406,3.845,17.276,7.806,36.408,10.941
			c7.966,13.903,22.857,25.827,32.124,33.242c2.23,1.785,7.99,7.065,21.508,22.383c0.701,0.795,5.106,4.278,9.287,4.278
			c0.002,0,3.007,0.393,7.316-4.298c13.814-15.035,19.264-20.581,21.491-22.363c9.645-7.718,25.381-20.319,33.063-34.952
			c18.828-3.713,29.425-7.783,35.536-11.324c4.88,10.057,9.811,19.343,14.575,27.744c17.566,30.973,35.014,54.256,45.994,67.752
			c-1.471,1.739-2.362,3.982-2.362,6.44c0,20.588,7.599,34.502,16.857,43.424c-4.115,3.192-8.402,7.917-12.35,14.909
			c-11.366,20.134-17.13,54.059-17.13,100.831c0,5.523,4.478,10,10,10h92.014c5.522,0,10-4.477,10-10L511.454,10
			C511.454,4.477,506.978,0,501.454,0z M20.544,296h58.515c-3.836,20.431-19.103,25.63-23.197,26.667H20.544V296z M92.466,435.164
			H20.547v-92.118c0,0,44.753-0.034,45.224-0.102c0.747,0.012,6.182,0.483,12.244,11.221
			C84.226,365.168,91.554,388.063,92.466,435.164z M126.452,201.45c-8.889,15.714-17.818,29.444-25.818,40.816
			c-0.729-0.524-4.68-1.898-5.84-1.898c-4.19,0-7.97,2.65-9.4,6.59C81.023,259.07,76.226,269.047,71.483,276H47.255
			c3.159-5.71,6.122-12.691,9.009-21.24c1.76-5.23-1.06-10.91-6.29-12.671c-1.029-0.35-2.109-0.529-3.189-0.529
			c-4.3,0-8.101,2.739-9.48,6.81v0.01c-2.77,8.25-5.75,15.11-8.64,19.83c-2.84,4.801-8.119,7.791-8.119,7.791V20h48.602
			c-0.067,1.168-1.282,20.489-2.213,32.93c-0.42,5.489,3.71,10.3,9.21,10.72c0.25,0.02,4.186,0.245,7.54-2.62
			c1.932-1.65,3-4.07,3.19-6.6c1.15-15.299,1.898-27.371,2.302-34.43H122.9c-0.078,1.122-1.505,20.119-2.654,32.659
			c-0.24,2.66,0.56,5.25,2.27,7.311c1.71,2.05,4.12,3.31,6.771,3.56c0.319,0.03,4.295-0.135,7.64-2.56
			c2.03-1.472,3.01-3.99,3.23-6.49c1.433-15.607,2.331-27.735,2.791-34.479h37.775c-0.774,24.508-4.35,47.965-9.629,69.921
			c-3.891,13.487-8.227,28.146-12.217,40.892C149.069,158.283,137.307,182.258,126.452,201.45z M272.759,214.725
			c-3.879,3.103-9.575,8.788-17.307,17.279c-7.727-8.488-13.424-14.173-17.306-17.279c-7.437-5.95-30.067-24.057-30.067-35.862
			c0-11.174,6.331-17.328,17.827-17.328c10.48,0,17.083,8.031,20.777,14.769c1.756,3.201,5.116,5.191,8.768,5.191h0.001
			c3.65,0,7.012-1.989,8.768-5.19c3.696-6.737,10.302-14.77,20.778-14.77c11.497,0,17.829,6.154,17.829,17.328
			C302.829,190.665,280.197,208.774,272.759,214.725z M322.569,174.016c-2.051-19.621-16.624-32.481-37.57-32.481
			c-13.327,0-22.946,6.153-29.545,13.06c-6.598-6.908-16.216-13.06-29.547-13.06c-21.568,0-36.38,13.638-37.718,34.253
			c-13.482-2.799-19.154-5.662-21.331-7.122c2.838-6.53,6.735-18.027,10.863-31.14c3-8.408,5.824-17.135,8.402-26.143
			c7.064,2.664,17.357,6.027,29.98,8.666c0.681,0.141,9.851,0.658,11.83-7.739c0.612-2.597,0.051-5.29-1.42-7.521
			c-1.46-2.24-3.7-3.77-6.319-4.31c-11.391-2.38-28.031-8.188-28.876-8.521c2.35-8.192,4.407-15.496,5.934-20.963
			c11.086,3.012,30.589,6.83,58.199,6.83c26.782,0,45.717-4.299,56.876-7.898c1.388,5.963,3.307,13.867,5.681,22.853
			c-7.405,3.019-15.032,5.479-22.794,7.319c-2.6,0.62-4.8,2.21-6.2,4.479c-1.41,2.271-1.84,4.95-1.229,7.55
			c1.08,4.54,5.082,7.823,9.729,7.7c2.253-0.06,18.208-4.651,25.898-7.671c5.393,18.329,12.147,38.354,19.846,54.939
			C340.16,168.793,333.796,171.362,322.569,174.016z M491.452,435.164h-71.919c0.912-47.102,8.24-69.996,14.451-80.999
			c5.993-10.615,11.373-11.196,12.252-11.22c0.468,0.067,45.216,0.101,45.216,0.101V435.164z M491.454,322.667h-35.285
			c-1.713-0.465-6.538-2.028-11.382-5.897c-6.246-4.988-10.215-11.95-11.857-20.77h58.524V322.667z M491.454,276
			c0,0-5.28-2.99-8.12-7.791c-2.88-4.72-5.87-11.58-8.64-19.84c-1.381-4.07-5.181-6.81-9.48-6.81c-1.08,0-2.15,0.18-3.19,0.529
			c-2.529,0.851-4.579,2.641-5.77,5.03c-1.19,2.4-1.37,5.11-0.52,7.641c2.888,8.542,5.851,15.523,9.011,21.24h-24.23
			c-4.743-6.945-9.531-16.922-13.911-29.041c-1.43-3.939-5.21-6.59-9.409-6.59c-1.16,0-2.301,0.2-3.4,0.601
			c-0.884,0.322-1.698,0.763-2.439,1.295c-7.903-11.24-16.722-24.794-25.529-40.323C361.929,159.809,333.639,94.736,331.278,20
			h37.775c0.467,6.807,1.367,18.994,2.78,34.479c0.229,2.5,1.38,4.81,3.24,6.49c1.85,1.68,4.229,2.6,6.71,2.6
			c0.31,0,0.62-0.01,0.93-0.04c5.49-0.5,9.54-5.38,9.04-10.87c-0.91-9.939-2.575-31.538-2.653-32.659h33.717
			c0.386,6.764,1.132,18.879,2.307,34.43c0.189,2.54,1.32,4.88,3.189,6.6c1.851,1.71,4.261,2.65,6.78,2.65
			c0.24,0,0.5-0.011,0.76-0.03c5.5-0.41,9.631-5.23,9.221-10.72c-0.96-12.65-2.147-31.664-2.22-32.93h48.6V276z"/>
	</g>
</g>
<g>
	<g>
		<path d="M464.894,210.74c-0.96-4.62-5.069-7.97-9.779-7.97c-0.681,0-1.37,0.069-2.04,0.21c-5.4,1.12-8.88,6.43-7.761,11.83
			c0.96,4.609,5.08,7.96,9.79,7.96c0.681,0,1.37-0.07,2.04-0.21C462.544,221.44,466.024,216.14,464.894,210.74z"/>
	</g>
</g>
<g>
	<g>
		<path d="M448.453,92.719c-0.23-2.5-1.391-4.79-3.24-6.471c-2.08-1.879-4.86-2.809-7.66-2.539c-2.66,0.25-5.06,1.521-6.76,3.58
			c-1.7,2.061-2.5,4.66-2.25,7.32c0.24,2.49,1.39,4.79,3.25,6.47c1.84,1.66,4.22,2.58,6.7,2.58c0.319,0,0.64-0.01,0.95-0.04
			c2.659-0.26,5.069-1.53,6.77-3.59C447.913,97.969,448.713,95.369,448.453,92.719z"/>
	</g>
</g>
<g>
	<g>
		<path d="M457.984,171.779c-1.841-12.13-3.631-25.39-5.301-39.42c-0.6-5.021-4.87-8.82-9.92-8.82c-0.399,0-0.8,0.03-1.2,0.07
			c-2.649,0.32-5.02,1.65-6.67,3.75c-1.65,2.1-2.39,4.71-2.069,7.37c1.689,14.24,3.51,27.72,5.39,40.069
			c0.37,2.37,1.57,4.54,3.4,6.101c1.809,1.54,4.109,2.39,6.479,2.39c0.5,0,1.01-0.04,1.521-0.12c2.64-0.399,4.96-1.81,6.55-3.96
			C457.744,177.059,458.393,174.419,457.984,171.779z"/>
	</g>
</g>
<g>
	<g>
		<path d="M395.864,92.289c-0.591-5.04-4.86-8.85-9.931-8.85c-0.38,0-0.77,0.03-1.16,0.07c-5.479,0.64-9.42,5.609-8.779,11.09
			c0.58,5.04,4.85,8.85,9.92,8.85c0.389,0,0.78-0.03,1.17-0.07C392.554,102.739,396.494,97.77,395.864,92.289z"/>
	</g>
</g>
<g>
	<g>
		<path d="M407.393,170.949c-2.25-12.18-4.4-25.36-6.409-39.189c-0.341-2.4-1.54-4.58-3.37-6.15c-2.191-1.88-5.11-2.72-7.96-2.311
			c-2.641,0.381-4.98,1.771-6.58,3.91c-1.59,2.141-2.261,4.771-1.88,7.42c2.05,14.101,4.25,27.54,6.529,39.94
			c0.87,4.75,5,8.19,9.82,8.19c0.611,0.001,1.22-0.06,1.821-0.17C404.785,181.589,408.393,176.369,407.393,170.949z"/>
	</g>
</g>
<g>
	<g>
		<path d="M415.575,209.588c-1.101-4.488-5.101-7.629-9.71-7.629c-0.801,0-1.601,0.1-2.391,0.29c-5.35,1.311-8.64,6.731-7.33,12.09
			c1.1,4.49,5.091,7.62,9.7,7.62c0.8,0,1.601-0.09,2.391-0.29c2.59-0.63,4.779-2.239,6.17-4.52
			C415.795,214.869,416.204,212.179,415.575,209.588z"/>
	</g>
</g>
<g>
	<g>
		<path d="M257.864,104.409c-0.011,0-0.021,0.01-0.021,0.01c-2.67,0-5.17,1.051-7.05,2.931c-1.89,1.899-2.92,4.41-2.92,7.08
			c0.01,5.5,4.49,9.979,10,9.989h0.01c2.67-0.01,5.18-1.05,7.07-2.939c1.89-1.891,2.92-4.41,2.92-7.08
			C267.864,108.89,263.374,104.409,257.864,104.409z"/>
	</g>
</g>
<g>
	<g>
		<path d="M372.736,499.949l-29.999-143.206c-0.97-4.632-5.055-7.949-9.787-7.949H185.958c-4.732,0-8.817,3.317-9.787,7.949
			l-30,143.206c-0.618,2.948,0.126,6.018,2.025,8.355c1.898,2.338,4.75,3.695,7.762,3.695h206.992c3.012,0,5.863-1.357,7.763-3.695
			C372.611,505.966,373.355,502.897,372.736,499.949z M207.236,492H168.27l25.811-123.206h22.406L207.236,492z M227.291,492
			l9.251-123.206h42.805L287.645,492H227.291z M307.691,492l-8.297-123.206h25.435L350.639,492H307.691z"/>
	</g>
</g>
<g>
</g>
<g>
</g>
<g>
</g>
<g>
</g>
<g>
</g>
<g>
</g>
<g>
</g>
<g>
</g>
<g>
</g>
<g>
</g>
<g>
</g>
<g>
</g>
<g>
</g>
<g>
</g>
<g>
</g>
</svg>
